<?xml version="1.0" encoding="UTF-8" standalone="no"?>
<!-- Created with Inkscape (http://www.inkscape.org/) -->

<svg
   width="1856"
   height="960"
   viewBox="0 0 491.06666 254.00001"
   version="1.1"
   id="svg5"
   inkscape:version="1.1.2 (0a00cf5339, 2022-02-04)"
   sodipodi:docname="background.svg"
   xmlns:inkscape="http://www.inkscape.org/namespaces/inkscape"
   xmlns:sodipodi="http://sodipodi.sourceforge.net/DTD/sodipodi-0.dtd"
   xmlns="http://www.w3.org/2000/svg"
   xmlns:svg="http://www.w3.org/2000/svg">
  <sodipodi:namedview
     id="namedview7"
     pagecolor="#ffffff"
     bordercolor="#666666"
     borderopacity="1.0"
     inkscape:pageshadow="2"
     inkscape:pageopacity="0"
     inkscape:pagecheckerboard="false"
     inkscape:document-units="px"
     showgrid="true"
     inkscape:zoom="0.46079084"
     inkscape:cx="896.28517"
     inkscape:cy="328.78258"
     inkscape:window-width="1701"
     inkscape:window-height="810"
     inkscape:window-x="59"
     inkscape:window-y="0"
     inkscape:window-maximized="0"
     inkscape:current-layer="layer1"
     units="px"
     width="1856px"
     showguides="false">
    <inkscape:grid
       type="xygrid"
       id="grid64" />
  </sodipodi:namedview>
  <defs
     id="defs2">
    <filter
       inkscape:collect="always"
       style="color-interpolation-filters:sRGB"
       id="filter3676-6"
       x="-0.0308037"
       y="-0.031651416"
       width="1.0616074"
       height="1.0633028">
      <feGaussianBlur
         inkscape:collect="always"
         stdDeviation="5.3416144"
         id="feGaussianBlur3678-7" />
    </filter>
    <filter
       inkscape:collect="always"
       style="color-interpolation-filters:sRGB"
       id="filter3676-6-3"
       x="-0.3259514"
       y="-0.33788761"
       width="1.6519028"
       height="1.6757752">
      <feGaussianBlur
         inkscape:collect="always"
         stdDeviation="12.365053"
         id="feGaussianBlur3678-7-5" />
    </filter>
    <filter
       inkscape:collect="always"
       style="color-interpolation-filters:sRGB"
       id="filter3676-6-1"
       x="-0.14080867"
       y="-0.14596502"
       width="1.2816173"
       height="1.29193">
      <feGaussianBlur
         inkscape:collect="always"
         stdDeviation="5.3416144"
         id="feGaussianBlur3678-7-2" />
    </filter>
    <filter
       inkscape:collect="always"
       style="color-interpolation-filters:sRGB"
       id="filter3676-7"
       x="-0.08205298"
       y="-0.085057726"
       width="1.164106"
       height="1.1701155">
      <feGaussianBlur
         inkscape:collect="always"
         stdDeviation="3.1127017"
         id="feGaussianBlur3678-0" />
    </filter>
    <filter
       inkscape:collect="always"
       style="color-interpolation-filters:sRGB"
       id="filter3676-6-1-0"
       x="-0.9517543"
       y="-0.98660715"
       width="2.9035086"
       height="2.9732143">
      <feGaussianBlur
         inkscape:collect="always"
         stdDeviation="36.105052"
         id="feGaussianBlur3678-7-2-6" />
    </filter>
    <filter
       inkscape:collect="always"
       style="color-interpolation-filters:sRGB"
       id="filter3676-6-3-6"
       x="-0.3259514"
       y="-0.33788761"
       width="1.6519028"
       height="1.6757752">
      <feGaussianBlur
         inkscape:collect="always"
         stdDeviation="12.365053"
         id="feGaussianBlur3678-7-5-1" />
    </filter>
    <filter
       inkscape:collect="always"
       style="color-interpolation-filters:sRGB"
       id="filter3676-6-8"
       x="-0.0308037"
       y="-0.031651416"
       width="1.0616074"
       height="1.0633028">
      <feGaussianBlur
         inkscape:collect="always"
         stdDeviation="5.3416144"
         id="feGaussianBlur3678-7-7" />
    </filter>
    <filter
       inkscape:collect="always"
       style="color-interpolation-filters:sRGB"
       id="filter3676-6-5"
       x="-0.40166549"
       y="-0.4127193"
       width="1.803331"
       height="1.8254386">
      <feGaussianBlur
         inkscape:collect="always"
         stdDeviation="69.652091"
         id="feGaussianBlur3678-7-3" />
    </filter>
    <filter
       inkscape:collect="always"
       style="color-interpolation-filters:sRGB"
       id="filter3592-2"
       x="-0.39704209"
       y="-0.51137381"
       width="1.7940842"
       height="2.0227476">
      <feGaussianBlur
         inkscape:collect="always"
         stdDeviation="3.6156811"
         id="feGaussianBlur3594-6" />
    </filter>
    <filter
       inkscape:collect="always"
       style="color-interpolation-filters:sRGB"
       id="filter3592-6-1"
       x="-0.56795732"
       y="-0.73150557"
       width="2.1359146"
       height="2.4630111">
      <feGaussianBlur
         inkscape:collect="always"
         stdDeviation="5.172128"
         id="feGaussianBlur3594-0-8" />
    </filter>
    <filter
       inkscape:collect="always"
       style="color-interpolation-filters:sRGB"
       id="filter3592-28"
       x="-0.39704209"
       y="-0.51137381"
       width="1.7940842"
       height="2.0227476">
      <feGaussianBlur
         inkscape:collect="always"
         stdDeviation="3.6156811"
         id="feGaussianBlur3594-9" />
    </filter>
    <filter
       inkscape:collect="always"
       style="color-interpolation-filters:sRGB"
       id="filter3592-6-7"
       x="-0.56795732"
       y="-0.73150557"
       width="2.1359146"
       height="2.4630111">
      <feGaussianBlur
         inkscape:collect="always"
         stdDeviation="5.172128"
         id="feGaussianBlur3594-0-3" />
    </filter>
    <filter
       inkscape:collect="always"
       style="color-interpolation-filters:sRGB"
       id="filter3592"
       x="-0.39704209"
       y="-0.51137381"
       width="1.7940842"
       height="2.0227476">
      <feGaussianBlur
         inkscape:collect="always"
         stdDeviation="3.6156811"
         id="feGaussianBlur3594" />
    </filter>
    <filter
       inkscape:collect="always"
       style="color-interpolation-filters:sRGB"
       id="filter3592-6"
       x="-0.56795732"
       y="-0.73150557"
       width="2.1359146"
       height="2.4630111">
      <feGaussianBlur
         inkscape:collect="always"
         stdDeviation="5.172128"
         id="feGaussianBlur3594-0" />
    </filter>
  </defs>
  <g
     inkscape:label="Calque 1"
     inkscape:groupmode="layer"
     id="layer1">
    <rect
       style="fill:#1a1a1a;stroke-width:0.264583"
       id="rect88"
       width="497.41669"
       height="254"
       x="9.7699626e-15"
       y="-2.1553412e-06" />
    <path
       id="path1023-3-5-5"
       style="opacity:0.713276;mix-blend-mode:normal;fill:#caffff;fill-opacity:1;stroke-width:1.7107;filter:url(#filter3676-6-5)"
       d="M 452.02148,143.83008 A 208.09023,202.51696 0 0 0 243.93164,346.34766 208.09023,202.51696 0 0 0 452.02148,548.86328 208.09023,202.51696 0 0 0 660.11133,346.34766 208.09023,202.51696 0 0 0 452.02148,143.83008 Z"
       transform="matrix(1.0783344,0,0,0.58213684,-286.34699,-83.728788)" />
    <ellipse
       style="mix-blend-mode:normal;fill:#fbffff;fill-opacity:1;stroke-width:0.372591;filter:url(#filter3676-6-1-0)"
       id="path1023-3-5-9-2"
       cx="133.05544"
       cy="-0.81931406"
       rx="45.52232"
       ry="43.9142"
       transform="matrix(2.5635283,0,0,1.7268772,-218.62362,115.30202)" />
    <ellipse
       style="mix-blend-mode:normal;fill:#f4ffff;fill-opacity:1;stroke-width:0.372591;filter:url(#filter3676-6-3)"
       id="path1023-3-5-6"
       cx="133.05544"
       cy="-0.81931406"
       rx="45.52232"
       ry="43.9142"
       transform="matrix(1.3218402,0,0,1.5115669,-55.816425,91.33581)" />
    <path
       id="path1023-3-5"
       style="mix-blend-mode:normal;fill:#caffff;fill-opacity:1;stroke-width:1.7107;filter:url(#filter3676-6)"
       d="M 452.02148 143.83008 A 208.09023 202.51696 0 0 0 243.93164 346.34766 A 208.09023 202.51696 0 0 0 452.02148 548.86328 A 208.09023 202.51696 0 0 0 660.11133 346.34766 A 208.09023 202.51696 0 0 0 452.02148 143.83008 z "
       transform="scale(0.26458334)" />
    <ellipse
       style="mix-blend-mode:normal;fill:#caffff;fill-opacity:1;stroke-width:0.372591;filter:url(#filter3676-6-1)"
       id="path1023-3-5-9"
       cx="133.05544"
       cy="-0.81931406"
       rx="45.52232"
       ry="43.9142"
       transform="matrix(1.2094552,0,0,1.220166,225.99335,-331.40111)" />
    <ellipse
       style="mix-blend-mode:normal;fill:#9affff;fill-opacity:1;stroke-width:0.372591;filter:url(#filter3676-7)"
       id="path1023-3-3"
       cx="374.5303"
       cy="-346.5712"
       rx="45.52232"
       ry="43.9142" />
    <path
       id="rect5017-27"
       style="fill:#1a1a1a;fill-opacity:1;stroke-width:0.264583;stroke-miterlimit:4;stroke-dasharray:none"
       d="m -439.73751,39.952081 v 5.027084 h -0.79375 v 6.614583 h -1.32291 v 1.322917 h -2.64584 v 10.583333 a 84.666669,15.875 0 0 1 -84.66666,15.875001 84.666669,15.875 0 0 1 -84.66667,-15.875001 v 42.333332 h 169.33333 v 15.875 h 10.58334 v -15.875 h 169.33334 v 15.875 H -254 v -15.875 h 169.333336 v 15.875 H -74.08333 V 52.916665 h -2.645833 v -1.322917 h -1.322917 v -6.614583 h -0.79375 v -5.027084 h -1.058333 v 5.027084 h -0.793751 v 6.614583 h -1.322916 v 1.322917 h -2.645834 V 63.499998 A 84.666669,15.875 0 0 1 -169.33333,79.374999 84.666669,15.875 0 0 1 -254,63.499998 V 52.916665 h -2.64583 v -1.322917 h -1.32292 v -6.614583 h -0.79375 v -5.027084 h -1.05833 v 5.027084 h -0.79375 v 6.614583 h -1.32292 v 1.322917 h -2.64583 V 63.499998 A 84.666669,15.875 0 0 1 -349.25,79.374999 84.666669,15.875 0 0 1 -433.91667,63.499998 V 52.916665 h -2.64584 v -1.322917 h -1.32291 v -6.614583 h -0.79375 v -5.027084 z" />
    <rect
       style="fill:#1a1a1a;stroke-width:0.262889"
       id="rect88-9"
       width="491.06668"
       height="254"
       x="-639.23334"
       y="-359.83334" />
    <ellipse
       style="mix-blend-mode:normal;fill:#f4ffff;fill-opacity:1;stroke-width:0.372591;filter:url(#filter3676-6-3-6)"
       id="path1023-3-5-6-2"
       cx="133.05544"
       cy="-0.81931406"
       rx="45.52232"
       ry="43.9142"
       transform="matrix(1.3218402,0,0,1.5115669,-210.59768,-415.34128)" />
    <path
       id="path1023-3-5-0"
       style="mix-blend-mode:normal;fill:#caffff;fill-opacity:1;stroke-width:1.7107;filter:url(#filter3676-6-8)"
       d="M 452.02148,143.83008 A 208.09023,202.51696 0 0 0 243.93164,346.34766 208.09023,202.51696 0 0 0 452.02148,548.86328 208.09023,202.51696 0 0 0 660.11133,346.34766 208.09023,202.51696 0 0 0 452.02148,143.83008 Z"
       transform="matrix(0.26458334,0,0,0.26458334,-154.78125,-506.67709)" />
    <path
       id="rect5017-2"
       style="fill:#1a1a1a;fill-opacity:1;stroke-width:0.999999;stroke-miterlimit:4;stroke-dasharray:none"
       d="M 138 -1269 L 138 -1250 L 135 -1250 L 135 -1225 L 130 -1225 L 130 -1220 L 120 -1220 L 120 -1200 L 120 -1040 L 102.7832 -1040 L 102.7832 -1160.666 A 320 60.000004 0 0 1 76.671875 -1150.0195 L 76.671875 -1040 L 50.560547 -1040 L 50.560547 -1142.6895 A 320 60.000004 0 0 1 24.447266 -1137.2676 L 24.447266 -1040 L -1.6640625 -1040 L -1.6640625 -1132.9336 A 320 60.000004 0 0 1 -27.775391 -1129.459 L -27.775391 -1040 L -53.888672 -1040 L -53.888672 -1126.6953 A 320 60.000004 0 0 1 -80 -1124.4785 L -80 -1040 L -106.11133 -1040 L -106.11133 -1122.7305 A 320 60.000004 0 0 1 -132.22461 -1121.3945 L -132.22461 -1040 L -158.33594 -1040 L -158.33594 -1120.5625 A 320 60.000004 0 0 1 -184.44727 -1120.1641 L -184.44727 -1040 L -210.56055 -1040 L -210.56055 -1120.1113 A 320 60.000004 0 0 1 -236.67188 -1120.4043 L -236.67188 -1040 L -262.7832 -1040 L -262.7832 -1121.2363 A 320 60.000004 0 0 1 -288.89648 -1122.459 L -288.89648 -1040 L -315.00781 -1040 L -315.00781 -1124.0898 A 320 60.000004 0 0 1 -341.11914 -1126.1777 L -341.11914 -1040 L -367.23242 -1040 L -367.23242 -1128.8848 A 320 60.000004 0 0 1 -393.34375 -1132.2695 L -393.34375 -1040 L -419.45508 -1040 L -419.45508 -1136.4316 A 320 60.000004 0 0 1 -445.56836 -1141.6211 L -445.56836 -1040 L -471.67969 -1040 L -471.67969 -1148.3262 A 320 60.000004 0 0 1 -497.79297 -1158.2598 L -497.79102 -1040 L -520 -1040 L -520 -1020.123 L -497.79102 -1020.123 L -497.79102 -1020 L -471.67969 -1020 L -471.67969 -1020.123 L -445.56836 -1020.123 L -445.56836 -1020 L -419.45508 -1020 L -419.45508 -1020.123 L -393.34375 -1020.123 L -393.34375 -1020 L -367.23242 -1020 L -367.23242 -1020.123 L -341.11914 -1020.123 L -341.11914 -1020 L -315.00781 -1020 L -315.00781 -1020.123 L -288.89648 -1020.123 L -288.89648 -1020 L -262.7832 -1020 L -262.7832 -1020.123 L -236.67188 -1020.123 L -236.67188 -1020 L -210.56055 -1020 L -210.56055 -1020.123 L -184.44727 -1020.123 L -184.44727 -1020 L -158.33594 -1020 L -158.33594 -1020.123 L -132.22461 -1020.123 L -132.22461 -1020 L -106.11133 -1020 L -106.11133 -1020.123 L -80 -1020.123 L -80 -1020 L -53.888672 -1020 L -53.888672 -1020.123 L -27.775391 -1020.123 L -27.775391 -1020 L -1.6640625 -1020 L -1.6640625 -1020.123 L 24.447266 -1020.123 L 24.447266 -1020 L 50.560547 -1020 L 50.560547 -1020.123 L 76.671875 -1020.123 L 76.671875 -1020 L 102.7832 -1020 L 102.7832 -1020.123 L 120 -1020.123 L 120 -960 L 140 -960 L 158.40039 -960 L 160 -960 L 160 -1020.123 L 184 -1020.123 L 184 -1020 L 209.59961 -1020 L 209.59961 -1020.123 L 235.19922 -1020.123 L 235.19922 -1020 L 260.80078 -1020 L 260.80078 -1020.123 L 286.40039 -1020.123 L 286.40039 -1020 L 312 -1020 L 312 -1020.123 L 337.59961 -1020.123 L 337.59961 -1020 L 363.19922 -1020 L 363.19922 -1020.123 L 388.80078 -1020.123 L 388.80078 -1020 L 414.40039 -1020 L 414.40039 -1020.123 L 440 -1020.123 L 440 -1020 L 465.59961 -1020 L 465.59961 -1020.123 L 491.19922 -1020.123 L 491.19922 -1020 L 516.80078 -1020 L 516.80078 -1020.123 L 542.40039 -1020.123 L 542.40039 -1020 L 568 -1020 L 568 -1020.123 L 593.59961 -1020.123 L 593.59961 -1020 L 619.19922 -1020 L 619.19922 -1020.123 L 644.80078 -1020.123 L 644.80078 -1020 L 670.40039 -1020 L 670.40039 -1020.123 L 696 -1020.123 L 696 -1020 L 721.59961 -1020 L 721.59961 -1020.123 L 747.19922 -1020.123 L 747.19922 -1020 L 772.80078 -1020 L 772.80078 -1020.123 L 798.40039 -1020.123 L 798.40039 -1020 L 800 -1020 L 800 -960 L 835.19922 -960 L 840 -960 L 840 -1020.123 L 860.80078 -1020.123 L 860.80078 -1020 L 886.40039 -1020 L 886.40039 -1020.123 L 912 -1020.123 L 912 -1020 L 937.59961 -1020 L 937.59961 -1020.123 L 963.19922 -1020.123 L 963.19922 -1020 L 988.80078 -1020 L 988.80078 -1020.123 L 1014.4004 -1020.123 L 1014.4004 -1020 L 1040 -1020 L 1040 -1020.123 L 1065.5996 -1020.123 L 1065.5996 -1020 L 1091.1992 -1020 L 1091.1992 -1020.123 L 1116.8008 -1020.123 L 1116.8008 -1020 L 1142.4004 -1020 L 1142.4004 -1020.123 L 1168 -1020.123 L 1168 -1020 L 1193.5996 -1020 L 1193.5996 -1020.123 L 1219.1992 -1020.123 L 1219.1992 -1020 L 1244.8008 -1020 L 1244.8008 -1020.123 L 1270.4004 -1020.123 L 1270.4004 -1020 L 1296 -1020 L 1296 -1020.123 L 1321.5996 -1020.123 L 1321.5996 -1020 L 1347.1992 -1020 L 1347.1992 -1020.123 L 1372.8008 -1020.123 L 1372.8008 -1020 L 1398.4004 -1020 L 1398.4004 -1020.123 L 1424 -1020.123 L 1424 -1020 L 1449.5996 -1020 L 1449.5996 -1020.123 L 1475.1992 -1020.123 L 1475.1992 -1020 L 1480 -1020 L 1480 -960 L 1520 -960 L 1520 -1220 L 1510 -1220 L 1510 -1225 L 1505 -1225 L 1505 -1250 L 1502 -1250 L 1502 -1269 L 1498 -1269 L 1498 -1250 L 1495 -1250 L 1495 -1225 L 1490 -1225 L 1490 -1220 L 1480 -1220 L 1480 -1180 L 1480 -1040 L 1449.5996 -1040 L 1449.5996 -1154.5391 A 320 60.000004 0 0 1 1424 -1146.125 L 1424 -1040 L 1398.4004 -1040 L 1398.4004 -1140.002 A 320 60.000004 0 0 1 1372.8008 -1135.207 L 1372.8008 -1040 L 1347.1992 -1040 L 1347.1992 -1131.377 A 320 60.000004 0 0 1 1321.5996 -1128.2246 L 1321.5996 -1040 L 1296 -1040 L 1296 -1125.7168 A 320 60.000004 0 0 1 1270.4004 -1123.7148 L 1270.4004 -1040 L 1244.8008 -1040 L 1244.8008 -1122.1582 A 320 60.000004 0 0 1 1219.1992 -1121.0527 L 1219.1992 -1040 L 1193.5996 -1040 L 1193.5996 -1120.3633 A 320 60.000004 0 0 1 1168 -1120.0488 L 1168 -1040 L 1142.4004 -1040 L 1142.4004 -1120.1074 A 320 60.000004 0 0 1 1116.8008 -1120.5586 L 1116.8008 -1040 L 1091.1992 -1040 L 1091.1992 -1121.4316 A 320 60.000004 0 0 1 1065.5996 -1122.7031 L 1065.5996 -1040 L 1040 -1040 L 1040 -1124.3926 A 320 60.000004 0 0 1 1014.4004 -1126.5957 L 1014.4004 -1040 L 988.80078 -1040 L 988.80078 -1129.3438 A 320 60.000004 0 0 1 963.19922 -1132.7051 L 963.19922 -1040 L 937.59961 -1040 L 937.59961 -1136.8945 A 320 60.000004 0 0 1 912 -1142.1328 L 912 -1040 L 886.40039 -1040 L 886.40039 -1148.9355 A 320 60.000004 0 0 1 860.80078 -1158.8105 L 860.80078 -1040 L 840 -1040 L 840 -1200 L 840 -1220 L 830 -1220 L 830 -1225 L 825 -1225 L 825 -1250 L 822 -1250 L 822 -1269 L 818 -1269 L 818 -1250 L 815 -1250 L 815 -1225 L 810 -1225 L 810 -1220 L 800 -1220 L 800 -1180 L 800 -1040 L 772.80078 -1040 L 772.80078 -1156.373 A 320 60.000004 0 0 1 747.19922 -1147.666 L 747.19922 -1040 L 721.59961 -1040 L 721.59961 -1140.9805 A 320 60.000004 0 0 1 696 -1136.1797 L 696 -1040 L 670.40039 -1040 L 670.40039 -1132.0156 A 320 60.000004 0 0 1 644.80078 -1129 L 644.80078 -1040 L 619.19922 -1040 L 619.19922 -1125.9824 A 320 60.000004 0 0 1 593.59961 -1124.2852 L 593.59961 -1040 L 568 -1040 L 568 -1122.6055 A 320 60.000004 0 0 1 542.40039 -1121.3184 L 542.40039 -1040 L 516.80078 -1040 L 516.80078 -1120.7773 A 320 60.000004 0 0 1 491.19922 -1120.2363 L 491.19922 -1040 L 465.59961 -1040 L 465.59961 -1120.3047 A 320 60.000004 0 0 1 440 -1120.8457 L 440 -1040 L 414.40039 -1040 L 414.40039 -1121.3848 A 320 60.000004 0 0 1 388.80078 -1122.8164 L 388.80078 -1040 L 363.19922 -1040 L 363.19922 -1124.4961 A 320 60.000004 0 0 1 337.59961 -1126.3613 L 337.59961 -1040 L 312 -1040 L 312 -1129.377 A 320 60.000004 0 0 1 286.40039 -1132.3926 L 286.40039 -1040 L 260.80078 -1040 L 260.80078 -1136.7793 A 320 60.000004 0 0 1 235.19922 -1141.5801 L 235.19922 -1040 L 209.59961 -1040 L 209.59961 -1148.623 A 320 60.000004 0 0 1 184 -1158.0879 L 184 -1040 L 160 -1040 L 160 -1220 L 150 -1220 L 150 -1225 L 145 -1225 L 145 -1250 L 142 -1250 L 142 -1269 L 138 -1269 z "
       transform="scale(0.26458334)" />
    <path
       id="rect5017-2-3"
       style="fill:#1a1a1a;fill-opacity:1;stroke-width:0.264583;stroke-miterlimit:4;stroke-dasharray:none"
       d="m 166.89937,177.56796 v 5.02708 h -0.79375 v 6.61459 h -1.32292 v 1.32292 h -2.64583 v 5.29166 42.33334 h -4.55528 v -31.92622 a 84.666669,15.875001 0 0 1 -6.90862,2.81689 v 29.10933 h -6.90862 v -27.16993 a 84.666669,15.875001 0 0 1 -6.90914,1.43454 v 25.73539 h -6.90862 v -24.58869 a 84.666669,15.875001 0 0 1 -6.90862,0.91933 v 23.66936 h -6.90914 v -22.93814 a 84.666669,15.875001 0 0 1 -6.90862,0.58653 v 22.35161 h -6.90863 v -21.88912 a 84.666669,15.875001 0 0 1 -6.909128,0.35349 v 21.53563 h -6.908627 v -21.3155 a 84.666669,15.875001 0 0 1 -6.908623,0.10541 v 21.21009 h -6.909139 v -21.19612 a 84.666669,15.875001 0 0 1 -6.908622,-0.0775 v 21.27362 H 60.85882 v -21.49378 a 84.666669,15.875001 0 0 1 -6.909139,-0.3235 v 21.81728 h -6.908622 v -22.24876 a 84.666669,15.875001 0 0 1 -6.908623,-0.55243 v 22.80119 h -6.90914 v -23.51744 a 84.666669,15.875001 0 0 1 -6.908623,-0.89554 v 24.41298 h -6.908622 v -25.5142 a 84.666669,15.875001 0 0 1 -6.909139,-1.37305 v 26.88725 H 5.5882887 v -28.66131 a 84.666669,15.875001 0 0 1 -6.9091395,-2.62827 l 5.3e-4,31.28958 h -5.8761396 v 5.25912 h 5.8761256 v 0.0325 h 6.9086235 v -0.0325 h 6.9086233 v 0.0325 h 6.909139 v -0.0325 h 6.908622 v 0.0325 h 6.908623 v -0.0325 h 6.90914 v 0.0325 h 6.908623 v -0.0325 h 6.908622 v 0.0325 h 6.909139 v -0.0325 h 6.908621 v 0.0325 h 6.908622 v -0.0325 h 6.909139 v 0.0325 h 6.908623 v -0.0325 h 6.908627 v 0.0325 h 6.909128 v -0.0325 h 6.90863 v 0.0325 h 6.90862 v -0.0325 h 6.90914 v 0.0325 h 6.90862 v -0.0325 h 6.90862 v 0.0325 h 6.90914 v -0.0325 h 6.90862 v 0.0325 h 6.90862 v -0.0325 h 4.55528 v 15.90754 h 5.29167 4.86843 0.42323 v -15.90754 h 6.35 v 0.0325 h 6.77323 v -0.0325 h 6.77324 v 0.0325 h 6.77374 v -0.0325 h 6.77323 v 0.0325 h 6.77323 v -0.0325 h 6.77323 v 0.0325 h 6.77323 v -0.0325 h 6.77375 v 0.0325 h 6.77323 v -0.0325 h 6.77323 v 0.0325 h 6.77323 v -0.0325 H 260.35 v 0.0325 h 6.77375 v -0.0325 h 6.77323 v 0.0325 h 6.77323 v -0.0325 h 6.77323 v 0.0325 h 6.77323 v -0.0325 h 6.77374 v 0.0325 h 6.77323 v -0.0325 h 6.77323 v 0.0325 h 6.77323 v -0.0325 h 6.77324 v 0.0325 h 6.77374 v -0.0325 h 6.77323 v 0.0325 h 0.42323 v 15.875 h 9.31313 1.27021 v -15.90754 h 5.50354 v 0.0325 h 6.77323 v -0.0325 h 6.77323 v 0.0325 h 6.77323 v -0.0325 h 6.77323 v 0.0325 h 6.77374 v -0.0325 h 6.77324 v 0.0325 h 6.77322 v -0.0325 h 6.77323 v 0.0325 H 419.1 v -0.0325 h 6.77376 v 0.0325 h 6.77322 v -0.0325 h 6.77323 v 0.0325 h 6.77323 v -0.0325 h 6.77323 v 0.0325 h 6.77375 v -0.0325 h 6.77323 v 0.0325 h 6.77323 v -0.0325 h 6.77323 v 0.0325 h 6.77322 v -0.0325 h 6.77376 v 0.0325 h 6.77323 v -0.0325 h 6.77323 v 0.0325 h 6.77322 v -0.0325 H 520.7 v 0.0325 h 1.27021 v 15.875 h 10.58334 v -68.79158 h -2.64584 v -1.32292 h -1.32291 v -6.61459 h -0.79375 v -5.02708 h -1.05834 v 5.02708 h -0.79375 v 6.61459 h -1.32291 v 1.32292 h -2.64584 v 10.58333 37.04167 h -8.04344 v -30.30514 a 84.666669,15.875001 0 0 1 -6.77322,2.22623 v 28.07891 h -6.77323 v -26.45887 a 84.666669,15.875001 0 0 1 -6.77323,1.26868 v 25.19019 h -6.77376 v -24.17684 a 84.666669,15.875001 0 0 1 -6.77322,0.83408 v 23.34276 h -6.77323 v -22.67924 a 84.666669,15.875001 0 0 1 -6.77323,0.5297 v 22.14954 h -6.77323 v -21.73769 a 84.666669,15.875001 0 0 1 -6.77375,0.29249 v 21.4452 h -6.77323 v -21.26279 a 84.666669,15.875001 0 0 1 -6.77323,0.0832 v 21.17959 h -6.77323 v -21.19509 a 84.666669,15.875001 0 0 1 -6.77322,-0.11938 v 21.31447 H 419.1 V 216.6121 a 84.666669,15.875001 0 0 1 -6.77323,-0.33642 v 21.88187 h -6.77323 v -22.32888 a 84.666669,15.875001 0 0 1 -6.77322,-0.5829 v 22.91178 h -6.77324 v -23.63888 a 84.666669,15.875001 0 0 1 -6.77374,-0.88935 v 24.52823 h -6.77323 v -25.63667 a 84.666669,15.875001 0 0 1 -6.77323,-1.38597 v 27.02264 h -6.77323 v -28.82252 a 84.666669,15.875001 0 0 1 -6.77323,-2.61276 v 31.43528 h -5.50354 v -42.33334 -5.29166 h -2.64584 v -1.32292 h -1.32291 v -6.61459 h -0.79375 v -5.02708 h -1.05834 v 5.02708 h -0.79375 v 6.61459 h -1.32291 v 1.32292 h -2.64584 v 10.58333 37.04167 h -7.19646 v -30.79036 a 84.666669,15.875001 0 0 1 -6.77374,2.30373 v 28.48663 h -6.77324 v -26.71776 a 84.666669,15.875001 0 0 1 -6.77323,1.27021 v 25.44755 h -6.77323 v -24.3458 a 84.666669,15.875001 0 0 1 -6.77323,0.79788 v 23.54792 h -6.77374 v -22.74951 a 84.666669,15.875001 0 0 1 -6.77323,0.44905 v 22.30046 h -6.77323 v -21.85604 a 84.666669,15.875001 0 0 1 -6.77323,0.34054 v 21.5155 h -6.77323 v -21.37233 a 84.666669,15.875001 0 0 1 -6.77375,0.14314 v 21.22919 h -6.77323 v -21.24729 a 84.666669,15.875001 0 0 1 -6.77323,-0.14314 v 21.39043 h -6.77323 v -21.53307 a 84.666669,15.875001 0 0 1 -6.77323,-0.37877 v 21.91184 h -6.77375 v -22.35626 a 84.666669,15.875001 0 0 1 -6.77323,-0.4935 v 22.84976 h -6.77323 v -23.64767 a 84.666669,15.875001 0 0 1 -6.77323,-0.79788 v 24.44555 h -6.77323 v -25.60619 a 84.666669,15.875001 0 0 1 -6.77374,-1.27022 v 26.87641 h -6.77324 v -28.73984 a 84.666669,15.875001 0 0 1 -6.77323,-2.50425 v 31.24409 h -6.35 v -47.625 h -2.64583 v -1.32292 h -1.32292 v -6.61459 h -0.79375 v -5.02708 z" />
    <rect
       style="fill:#000000;fill-opacity:1;stroke-width:0.264583;stroke-miterlimit:4;stroke-dasharray:none"
       id="rect6986-3"
       width="31.749994"
       height="137.58334"
       x="254"
       y="-179.91666"
       ry="0" />
    <rect
       style="fill:#000000;fill-opacity:1;stroke-width:0.314372;stroke-miterlimit:4;stroke-dasharray:none"
       id="rect7010-6"
       width="42.333351"
       height="190.5"
       x="306.91666"
       y="-232.83333"
       ry="2.4949886e-06" />
    <rect
       style="fill:#0000ff;fill-rule:evenodd;stroke-width:0.264583"
       id="rect210-7"
       width="42.333336"
       height="5.291667"
       x="306.91666"
       y="-227.54167" />
    <rect
       style="fill:#0000ff;fill-rule:evenodd;stroke-width:0.264583"
       id="rect212-5"
       width="42.333336"
       height="5.291667"
       x="306.91666"
       y="-216.95833" />
    <rect
       style="fill:#0000ff;fill-rule:evenodd;stroke-width:0.264583"
       id="rect214-3"
       width="42.333336"
       height="5.291667"
       x="306.91666"
       y="-206.375" />
    <rect
       style="fill:#0000ff;fill-rule:evenodd;stroke-width:0.264583"
       id="rect216-5"
       width="42.333336"
       height="5.291667"
       x="306.91666"
       y="-195.79167" />
    <rect
       style="fill:#0000ff;fill-rule:evenodd;stroke-width:0.264583"
       id="rect218-6"
       width="42.333336"
       height="5.291667"
       x="306.91666"
       y="-185.20833" />
    <rect
       style="fill:#0000ff;fill-rule:evenodd;stroke-width:0.264583"
       id="rect220-2"
       width="42.333336"
       height="5.291667"
       x="306.91666"
       y="-174.625" />
    <rect
       style="fill:#0000ff;fill-rule:evenodd;stroke-width:0.264583"
       id="rect222-9"
       width="42.333336"
       height="5.291667"
       x="306.91666"
       y="-164.04167" />
    <rect
       style="fill:#0000ff;fill-rule:evenodd;stroke-width:0.264583"
       id="rect224-1"
       width="42.333336"
       height="5.291667"
       x="306.91666"
       y="-153.45833" />
    <rect
       style="fill:#0000ff;fill-rule:evenodd;stroke-width:0.264583"
       id="rect226-2"
       width="42.333336"
       height="5.291667"
       x="306.91666"
       y="-142.875" />
    <rect
       style="fill:#0000ff;fill-rule:evenodd;stroke-width:0.264583"
       id="rect228-7"
       width="42.333336"
       height="5.291667"
       x="306.91666"
       y="-132.29167" />
    <rect
       style="fill:#0000ff;fill-rule:evenodd;stroke-width:0.264583"
       id="rect230-0"
       width="42.333336"
       height="5.291667"
       x="306.91666"
       y="-121.70834" />
    <rect
       style="fill:#0000ff;fill-rule:evenodd;stroke-width:0.264583"
       id="rect232-9"
       width="42.333336"
       height="5.291667"
       x="306.91666"
       y="-111.12501" />
    <rect
       style="fill:#0000ff;fill-rule:evenodd;stroke-width:0.264583"
       id="rect234-3"
       width="42.333336"
       height="5.291667"
       x="306.91666"
       y="-100.54167" />
    <rect
       style="fill:#0000ff;fill-rule:evenodd;stroke-width:0.264583"
       id="rect236-6"
       width="42.333336"
       height="5.291667"
       x="306.91666"
       y="-89.958336" />
    <rect
       style="fill:#0000ff;fill-rule:evenodd;stroke-width:0.264583"
       id="rect238-0"
       width="42.333336"
       height="5.291667"
       x="306.91666"
       y="-79.375008" />
    <rect
       style="fill:#0000ff;fill-rule:evenodd;stroke-width:0.264583"
       id="rect240-6"
       width="42.333336"
       height="5.291667"
       x="306.91666"
       y="-68.791672" />
    <rect
       style="fill:#0000ff;fill-rule:evenodd;stroke-width:0.264583"
       id="rect242-2"
       width="42.333336"
       height="5.291667"
       x="306.91666"
       y="-58.208332" />
    <rect
       style="fill:#0000ff;fill-rule:evenodd;stroke-width:0.264583"
       id="rect244-6"
       width="42.333336"
       height="5.291667"
       x="306.91666"
       y="-47.625" />
    <rect
       style="fill:#0000ff;fill-rule:evenodd;stroke-width:0.264583"
       id="rect246-1"
       width="31.75"
       height="5.291667"
       x="254"
       y="-174.625" />
    <rect
       style="fill:#0000ff;fill-rule:evenodd;stroke-width:0.264583"
       id="rect248-8"
       width="31.75"
       height="5.291667"
       x="254"
       y="-164.04167" />
    <rect
       style="fill:#0000ff;fill-rule:evenodd;stroke-width:0.264583"
       id="rect250-7"
       width="31.75"
       height="5.291667"
       x="254"
       y="-153.45833" />
    <rect
       style="fill:#0000ff;fill-rule:evenodd;stroke-width:0.264583"
       id="rect252-9"
       width="31.75"
       height="5.291667"
       x="254"
       y="-142.875" />
    <rect
       style="fill:#0000ff;fill-rule:evenodd;stroke-width:0.264583"
       id="rect254-2"
       width="31.75"
       height="5.291667"
       x="254"
       y="-132.29167" />
    <rect
       style="fill:#0000ff;fill-rule:evenodd;stroke-width:0.264583"
       id="rect256-0"
       width="31.75"
       height="5.291667"
       x="254"
       y="-121.70834" />
    <rect
       style="fill:#0000ff;fill-rule:evenodd;stroke-width:0.264583"
       id="rect258-2"
       width="31.75"
       height="5.291667"
       x="254"
       y="-111.12501" />
    <rect
       style="fill:#0000ff;fill-rule:evenodd;stroke-width:0.264583"
       id="rect260-3"
       width="31.75"
       height="5.291667"
       x="254"
       y="-100.54167" />
    <rect
       style="fill:#0000ff;fill-rule:evenodd;stroke-width:0.264583"
       id="rect262-7"
       width="31.75"
       height="5.291667"
       x="254"
       y="-89.958336" />
    <rect
       style="fill:#0000ff;fill-rule:evenodd;stroke-width:0.264583"
       id="rect264-5"
       width="31.75"
       height="5.291667"
       x="254"
       y="-79.375008" />
    <rect
       style="fill:#0000ff;fill-rule:evenodd;stroke-width:0.264583"
       id="rect266-9"
       width="31.75"
       height="5.291667"
       x="254"
       y="-68.791672" />
    <rect
       style="fill:#0000ff;fill-rule:evenodd;stroke-width:0.264583"
       id="rect268-2"
       width="31.75"
       height="5.291667"
       x="254"
       y="-58.208332" />
    <rect
       style="fill:#0000ff;fill-rule:evenodd;stroke-width:0.264583"
       id="rect270-2"
       width="31.75"
       height="5.291667"
       x="254"
       y="-47.625" />
    <path
       id="rect6986-8"
       style="fill:#1a1a1a;fill-opacity:1;stroke-width:0.423333;stroke-miterlimit:4;stroke-dasharray:none"
       d="m 179.91667,103.37251 -4.24212,2.03708 h 4.24212 z m -18.3503,8.81083 -14.10664,6.77323 h 32.45694 v -6.77323 z m -28.21379,13.54646 -14.10663,6.77323 h 60.67072 v -6.77323 z m -16.93591,13.54646 V 146.05 h 63.5 v -6.77374 z m 0,13.54697 v 6.77323 h 63.5 v -6.77323 z m 0,13.54647 v 6.77323 h 63.5 v -6.77323 z m 0,13.54697 v 6.77323 h 63.5 v -6.77323 z m 0,13.54646 v 6.77323 h 63.5 v -6.77323 z m 0,13.54646 v 6.77375 h 63.5 v -6.77375 z m 0,13.54698 v 6.77323 h 63.5 v -6.77323 z m 0,13.54646 v 6.77323 h 63.5 v -6.77323 z m 0,13.54698 v 6.77323 h 63.5 v -6.77323 z" />
    <path
       id="rect6986-8-3"
       style="fill:#1a1a1a;fill-opacity:1;stroke-width:0.249919;stroke-miterlimit:4;stroke-dasharray:none"
       d="m 412.75001,175.27097 -2.82808,1.06496 h 2.82808 z m -12.23354,4.60618 -9.40442,3.54095 h 21.63796 v -3.54095 z m -18.80919,7.0819 -9.40442,3.54095 h 40.44715 v -3.54095 z m -11.29061,7.0819 v 3.54122 h 42.33334 v -3.54122 z m 0,7.08217 v 3.54095 h 42.33334 v -3.54095 z m 0,7.0819 v 3.54095 h 42.33334 v -3.54095 z m 0,7.08217 v 3.54095 h 42.33334 v -3.54095 z m 0,7.0819 v 3.54095 h 42.33334 v -3.54095 z m 0,7.08191 v 3.54122 h 42.33334 V 229.451 Z m 0,7.08216 v 3.54096 h 42.33334 v -3.54096 z m 0,7.08191 v 3.54095 h 42.33334 v -3.54095 z m 0,7.08217 v 3.54095 h 42.33334 v -3.54095 z" />
    <path
       id="rect6986"
       style="opacity:1;fill:#1a1a1a;fill-opacity:1;stroke-width:0.264583;stroke-miterlimit:4;stroke-dasharray:none"
       d="M 190.5,123.99967 V 127 h 3.19774 z m 0,8.292 v 5.29166 h 14.47922 l -5.64048,-5.29166 z m 0,10.58333 v 5.29167 h 25.76019 l -5.64048,-5.29167 z m 0,10.58333 V 158.75 h 31.75 v -4.96455 l -0.34881,-0.32712 z m 0,10.58334 v 5.29166 h 31.75 v -5.29166 z m 0,10.58333 v 5.29167 h 31.75 V 174.625 Z m 0,10.58334 V 190.5 h 31.75 v -5.29166 z m 0,10.58333 v 5.29166 h 31.75 v -5.29166 z m 0,10.58333 v 5.29167 h 31.75 V 206.375 Z m 0,10.58333 V 222.25 h 31.75 v -5.29167 z m 0,10.58334 v 5.29166 h 31.75 v -5.29166 z m 0,10.58333 v 5.29167 h 31.75 V 238.125 Z m 0,10.58333 V 254 h 31.75 v -5.29167 z" />
    <path
       id="rect6986-8-36"
       style="fill:#1a1a1a;fill-opacity:1;stroke-width:0.37232;stroke-miterlimit:4;stroke-dasharray:none"
       d="m 275.16667,116.41667 -4.24212,-1.57571 h 4.24212 z m -18.3503,-6.81531 -14.10664,-5.23919 h 32.45694 v 5.23919 z M 228.60258,99.122984 214.49595,93.883793 h 60.67072 v 5.239191 z M 211.66667,88.644602 v -5.239585 h 63.5 v 5.239585 z m 0,-10.478775 v -5.239188 h 63.5 v 5.239188 z m 0,-10.478386 V 62.44825 h 63.5 v 5.239191 z m 0,-10.478776 v -5.23919 h 63.5 v 5.23919 z m 0,-10.478381 v -5.23919 h 63.5 v 5.23919 z m 0,-10.478381 V 31.01231 h 63.5 v 5.239593 z m 0,-10.478783 v -5.239191 h 63.5 v 5.239191 z m 0,-10.478382 v -5.239189 h 63.5 v 5.239189 z m 0,-10.4787811 v -5.23919061 h 63.5 V 4.8159569 Z" />
    <path
       id="rect6986-7"
       style="fill:#1a1a1a;fill-opacity:1;stroke-width:0.388554;stroke-miterlimit:4;stroke-dasharray:none"
       d="m 317.5,141.64753 v -3.23531 h 6.39548 z m 0,-8.94143 V 127 h 28.95845 l -11.28096,5.7061 z m 0,-11.41222 v -5.70612 h 51.5204 l -11.28097,5.70612 z m 0,-11.41222 v -5.70611 H 381 v 5.35337 l -0.69762,0.35274 z m 0,-11.412229 V 92.763327 H 381 v 5.706104 z m 0,-11.412219 V 81.351097 H 381 v 5.706115 z m 0,-11.412229 V 69.938879 H 381 v 5.706104 z m 0,-11.412218 V 58.526661 H 381 v 5.706104 z m 0,-11.412219 V 47.114431 H 381 v 5.706115 z m 0,-11.412218 V 35.702213 H 381 v 5.706115 z m 0,-11.412235 V 24.289991 H 381 v 5.706102 z m 0,-11.412216 V 12.877764 H 381 v 5.706113 z m 0,-11.4122153 V 1.4655483 H 381 v 5.7061134 z" />
    <path
       id="rect6986-7-5"
       style="fill:#1a1a1a;fill-opacity:1;stroke-width:0.305514;stroke-miterlimit:4;stroke-dasharray:none"
       d="m 63.500011,130.00034 v -3.00033 h 4.263654 z m 0,-8.292 v -5.29166 h 19.305628 l -7.52064,5.29166 z m 0,-10.58333 v -5.29167 h 34.346923 l -7.520641,5.29167 z m 0,-10.58334 v -5.291669 h 42.333319 v 4.964549 l -0.46508,0.32712 z m 0,-10.583339 v -5.29166 h 42.333319 v 5.29166 z m 0,-10.58333 v -5.29167 h 42.333319 v 5.29167 z m 0,-10.58334 v -5.29166 h 42.333319 v 5.29166 z m 0,-10.58333 v -5.29166 h 42.333319 v 5.29166 z m 0,-10.58333 v -5.29167 h 42.333319 v 5.29167 z m 0,-10.58333 v -5.29167 h 42.333319 v 5.29167 z m 0,-10.58334 v -5.29166 h 42.333319 v 5.29166 z m 0,-10.58332 v -5.29168 h 42.333319 v 5.29168 z m 0,-10.5833306 V 1.0418965e-5 H 105.83333 V 5.2916804 Z" />
    <path
       id="rect6986-8-9"
       style="fill:#1a1a1a;fill-opacity:1;stroke-width:0.423333;stroke-miterlimit:4;stroke-dasharray:none"
       d="m 412.75001,85.936664 v 6.77334 h 63.50001 v -6.77334 z m 0,13.54667 v 6.773326 h 63.50001 v -6.773326 z m 0,13.546666 v 6.77333 h 63.50001 V 113.03 Z m 0,13.54666 V 133.35 h 63.50001 v -6.77334 z m 0,13.54667 v 6.77333 h 63.50001 v -6.77333 z m 0,13.54667 v 6.77333 h 63.50001 V 153.67 Z m 0,13.54666 V 173.99 h 63.50001 v -6.77334 z m 0,13.54667 v 6.77333 h 63.50001 v -6.77333 z m 0,13.54667 v 6.77334 h 63.50001 V 194.31 Z m 0,13.54668 v 6.77333 h 63.50001 v -6.77333 z m 0,13.54665 v 6.77333 h 63.50001 v -6.77333 z m 0,13.54667 v 6.77334 h 63.50001 V 234.95 Z m 0,13.54668 v 6.77333 h 63.50001 v -6.77333 z" />
    <path
       id="rect6986-8-7"
       style="fill:#000000;fill-opacity:1;stroke-width:0.62614;stroke-miterlimit:4;stroke-dasharray:none"
       d="m 35.473685,-216.77619 -8.17611,2.31219 h 8.17611 z m -35.36779041,10.00072 -27.18865459,7.68795 h 62.556445 v -7.68795 z m -54.37833459,15.3759 -27.18867,7.68795 H 35.473685 v -7.68795 z m -32.64175,15.3759 v 7.68853 H 35.473685 v -7.68853 z m 0,15.37648 v 7.68795 H 6.2830746 l 19.0165304,-7.68795 z m 0,15.3759 v 7.68795 H -31.75 l 19.016525,-7.68795 z m 0,15.37648 v 7.68796 h 68.688815 l -8.961965,-7.68796 z m 0,15.37591 v 7.68794 h 86.61274459 l -8.96197999,-7.68794 z m 0,15.375907 v 7.68853 H 17.622475 l -8.9629704,-7.68853 z m 0,15.37648 v 7.68794 H 35.473685 v -0.0622 l -8.88925,-7.62574 z m 0,15.37589 v 7.68795 H 35.473685 v -7.68795 z m 0,15.37649 v 7.68795 H 35.473685 v -7.68795 z" />
    <path
       id="rect6986-8-9-6"
       style="fill:#000000;fill-opacity:1;stroke-width:0.423333;stroke-miterlimit:4;stroke-dasharray:none"
       d="m 465.66666,-223.94334 v 6.77334 h 63.50001 v -6.77334 z m 0,13.54667 v 6.77333 h 63.50001 v -6.77333 z m 0,13.54667 v 6.77333 h 63.50001 V -196.85 Z m 0,13.54666 v 6.77334 h 63.50001 v -6.77334 z m 0,13.54667 v 6.77333 h 63.50001 v -6.77333 z m 0,13.54667 v 6.77333 h 63.50001 V -156.21 Z m 0,13.54666 v 6.77334 h 63.50001 v -6.77334 z m 0,13.54667 v 6.77333 h 63.50001 v -6.77333 z m 0,13.54667 v 6.77333 h 63.50001 V -115.57 Z m 0,13.54667 v 6.773334 h 63.50001 v -6.773334 z m 0,13.546659 v 6.77333 h 63.50001 v -6.77333 z m 0,13.54667 v 6.77334 h 63.50001 v -6.77334 z m 0,13.54668 v 6.773328 h 63.50001 v -6.773328 z" />
    <path
       id="rect6986-8-9-6-6"
       style="fill:#000000;fill-opacity:1;stroke-width:0.423333;stroke-miterlimit:4;stroke-dasharray:none"
       d="m 50.376655,-116.41663 h 6.77334 l -3e-5,-63.5 h -6.77334 z m 13.54667,0 6.77333,-1e-5 -3e-5,-63.49999 h -6.77333 z m 13.54667,-1e-5 h 6.77333 l -3e-5,-63.5 h -6.77333 z m 13.546663,0 6.77334,-1e-5 -3e-5,-63.49999 h -6.77334 z m 13.546672,-1e-5 h 6.77333 l -3e-5,-63.5 h -6.77333 z m 13.54666,0 6.77334,-10e-6 -3e-5,-63.5 -6.77333,1e-5 z m 13.54667,0 6.77334,-10e-6 -2e-5,-63.50001 -6.77334,1e-5 z m 13.54668,-10e-6 6.77332,-1e-5 -2e-5,-63.5 -6.77333,1e-5 z m 13.54667,-1e-5 h 6.77332 l -2e-5,-63.5 h -6.77333 z m 13.54667,-1e-5 h 6.77333 l -2e-5,-63.5 -6.77334,1e-5 z m 13.54666,0 h 6.77332 l -2e-5,-63.5 h -6.77333 z m 13.54666,-1e-5 h 6.77334 l -2e-5,-63.5 -6.77334,10e-6 z m 13.54668,0 h 6.77333 l -2e-5,-63.5 h -6.77334 z" />
    <path
       style="opacity:1;fill:#1a1a1a;stroke-width:0.264583"
       id="path2910"
       d="m 51.292788,-362.49674 c 4.642435,0.39012 9.297384,0.61272 13.94946,0.85359 3.072554,0.18352 6.150619,0.1968 9.227194,0.23945 0.824298,0.0172 1.647348,0.0313 2.471536,0.0124 0,0 3.382346,-2.48391 3.382346,-2.48391 v 0 c -0.851694,0.067 -1.702615,0.0782 -2.5572,0.0781 -3.131683,0.0201 -6.263339,-0.0204 -9.394053,-0.10028 -4.556252,-0.14327 -9.138373,-0.28284 -13.644269,-1.01978 0,0 -3.435014,2.42038 -3.435014,2.42038 z" />
    <ellipse
       style="opacity:0.680415;mix-blend-mode:normal;fill:#ff0000;fill-opacity:1;stroke-width:0.0802421;stroke-miterlimit:4;stroke-dasharray:none;filter:url(#filter3592-2)"
       id="path1023-6-7"
       cx="347.13834"
       cy="181.47148"
       rx="10.927853"
       ry="8.4846296"
       transform="matrix(0.35344327,0,0,0.41585805,511.40402,57.526818)" />
    <ellipse
       style="opacity:0.71536;mix-blend-mode:normal;fill:#ff0000;fill-opacity:1;stroke-width:0.0802421;stroke-miterlimit:4;stroke-dasharray:none;filter:url(#filter3592-6-1)"
       id="path1023-6-6-9"
       cx="347.13834"
       cy="181.47148"
       rx="10.927853"
       ry="8.4846296"
       transform="matrix(0.98238622,0,0,1.1360981,292.95439,-71.331119)" />
    <ellipse
       style="opacity:0.680415;mix-blend-mode:normal;fill:#ff0000;fill-opacity:1;stroke-width:0.0802421;stroke-miterlimit:4;stroke-dasharray:none;filter:url(#filter3592-28)"
       id="path1023-6-61"
       cx="347.13834"
       cy="181.47148"
       rx="10.927853"
       ry="8.4846296"
       transform="matrix(0.35344327,0,0,0.41585805,44.41443,99.860151)" />
    <ellipse
       style="opacity:0.71536;mix-blend-mode:normal;fill:#ff0000;fill-opacity:1;stroke-width:0.0802421;stroke-miterlimit:4;stroke-dasharray:none;filter:url(#filter3592-6-7)"
       id="path1023-6-6-2"
       cx="347.13834"
       cy="181.47148"
       rx="10.927853"
       ry="8.4846296"
       transform="matrix(0.98238622,0,0,1.1360981,-174.0352,-28.997786)" />
    <ellipse
       style="opacity:0.680415;mix-blend-mode:normal;fill:#ff0000;fill-opacity:1;stroke-width:0.0802421;stroke-miterlimit:4;stroke-dasharray:none;filter:url(#filter3592)"
       id="path1023-6"
       cx="347.13834"
       cy="181.47148"
       rx="10.927853"
       ry="8.4846296"
       transform="matrix(0.35344327,0,0,0.41585805,224.3311,99.860151)" />
    <ellipse
       style="opacity:0.71536;mix-blend-mode:normal;fill:#ff0000;fill-opacity:1;stroke-width:0.0802421;stroke-miterlimit:4;stroke-dasharray:none;filter:url(#filter3592-6)"
       id="path1023-6-6"
       cx="347.13834"
       cy="181.47148"
       rx="10.927853"
       ry="8.4846296"
       transform="matrix(0.98238622,0,0,1.1360981,5.8814694,-28.997786)" />
  </g>
</svg>
