<?xml version="1.0" encoding="UTF-8" standalone="no"?>
<!-- Created with Inkscape (http://www.inkscape.org/) -->

<svg
   width="64"
   height="64"
   viewBox="0 0 16.933333 16.933334"
   version="1.1"
   id="svg5"
   inkscape:version="1.1.2 (0a00cf5339, 2022-02-04)"
   sodipodi:docname="plateforme_bloc.svg"
   xmlns:inkscape="http://www.inkscape.org/namespaces/inkscape"
   xmlns:sodipodi="http://sodipodi.sourceforge.net/DTD/sodipodi-0.dtd"
   xmlns="http://www.w3.org/2000/svg"
   xmlns:svg="http://www.w3.org/2000/svg">
  <sodipodi:namedview
     id="namedview7"
     pagecolor="#ffffff"
     bordercolor="#666666"
     borderopacity="1.0"
     inkscape:pageshadow="2"
     inkscape:pageopacity="0.0"
     inkscape:pagecheckerboard="0"
     inkscape:document-units="px"
     showgrid="false"
     units="px"
     inkscape:zoom="4.8462402"
     inkscape:cx="19.086961"
     inkscape:cy="43.023043"
     inkscape:window-width="1440"
     inkscape:window-height="810"
     inkscape:window-x="285"
     inkscape:window-y="91"
     inkscape:window-maximized="0"
     inkscape:current-layer="layer1" />
  <defs
     id="defs2" />
  <g
     inkscape:label="Calque 1"
     inkscape:groupmode="layer"
     id="layer1">
    <path
       id="rect121"
       style="fill:#000000;fill-opacity:1;stroke-width:1.01873"
       d="M -0.77734375 -0.21289062 L -0.77734375 19.042969 L 15.748047 19.042969 L 15.546875 -0.21289062 L -0.77734375 -0.21289062 z M 16.84375 -0.21289062 L 17.044922 19.042969 L 64.871094 19.042969 L 64.871094 -0.21289062 L 47.351562 -0.21289062 L 47.548828 18.740234 L 46.251953 18.744141 L 46.054688 -0.21289062 L 16.84375 -0.21289062 z M -0.77734375 21.001953 L -0.77734375 45.482422 L 31.320312 45.482422 L 31.066406 21.001953 L -0.77734375 21.001953 z M 32.363281 21.001953 L 32.617188 45.482422 L 64.871094 45.482422 L 64.871094 21.001953 L 32.363281 21.001953 z M -0.77734375 47.439453 L -0.77734375 64.541016 L 16.865234 64.541016 L 16.6875 47.439453 L -0.77734375 47.439453 z M 17.984375 47.439453 L 18.162109 64.541016 L 46.302734 64.541016 L 46.125 47.439453 L 17.984375 47.439453 z M 47.421875 47.439453 L 47.599609 64.541016 L 64.871094 64.541016 L 64.871094 47.439453 L 47.421875 47.439453 z "
       transform="scale(0.26458334)" />
    <rect
       style="fill:#00ffff;fill-opacity:0.898946;stroke-width:0.264583"
       id="rect1484"
       width="0.42077324"
       height="0.16551287"
       x="-13.675312"
       y="11.09922"
       ry="1.436415e-05" />
    <rect
       style="fill:#000000;fill-opacity:0.898946;stroke-width:0.26954"
       id="rect121-2"
       width="17.369425"
       height="17.132599"
       x="-20.863636"
       y="-20.848097"
       ry="1.4364158e-05" />
    <rect
       style="fill:#00ffff;fill-opacity:0.898946;stroke-width:0.264583"
       id="rect1214-9"
       width="19.438936"
       height="0.51795167"
       x="-22.053265"
       y="-15.753327"
       ry="1.436415e-05" />
    <rect
       style="fill:#00ffff;fill-opacity:0.898946;stroke-width:0.264583"
       id="rect1214-3-1"
       width="19.438936"
       height="0.51795167"
       x="-21.932919"
       y="-8.8662996"
       ry="1.436415e-05" />
    <rect
       style="fill:#00ffff;fill-opacity:0.898946;stroke-width:0.132196"
       id="rect1214-3-6-2"
       width="7.3247232"
       height="0.34314793"
       x="8.3315468"
       y="-12.279768"
       ry="9.5163869e-06"
       transform="matrix(-0.0104033,-0.99994588,0.99999434,-0.00336514,0,0)" />
    <rect
       style="fill:#00ffff;fill-opacity:0.898946;stroke-width:0.132196"
       id="rect1214-3-6-7-7"
       width="7.3247232"
       height="0.34314793"
       x="1.3760551"
       y="-16.156534"
       ry="9.5163869e-06"
       transform="matrix(-0.0104033,-0.99994588,0.99999434,-0.00336514,0,0)" />
    <rect
       style="fill:#00ffff;fill-opacity:0.898946;stroke-width:0.132196"
       id="rect1214-3-6-5-0"
       width="7.3247232"
       height="0.34314793"
       x="1.4594463"
       y="-8.3681221"
       ry="9.5163869e-06"
       transform="matrix(-0.0104033,-0.99994588,0.99999434,-0.00336514,0,0)" />
    <rect
       style="fill:#00ffff;fill-opacity:0.898946;stroke-width:0.132196"
       id="rect1214-3-6-3-9"
       width="7.3247232"
       height="0.34314793"
       x="15.556984"
       y="-16.327057"
       ry="9.5163869e-06"
       transform="matrix(-0.0104033,-0.99994588,0.99999434,-0.00336514,0,0)" />
    <rect
       style="fill:#00ffff;fill-opacity:0.898946;stroke-width:0.132196"
       id="rect1214-3-6-56-3"
       width="7.3247232"
       height="0.34314793"
       x="15.861244"
       y="-8.2555428"
       ry="9.5163869e-06"
       transform="matrix(-0.0104033,-0.99994588,0.99999434,-0.00336514,0,0)" />
  </g>
</svg>
